<mxfile host="65bd71144e">
    <diagram id="HIP3nbAZw_EuaXWnEj3U" name="Page-1">
        <mxGraphModel dx="702" dy="477" grid="1" gridSize="10" guides="1" tooltips="1" connect="1" arrows="1" fold="1" page="1" pageScale="1" pageWidth="850" pageHeight="1100" math="0" shadow="0">
            <root>
                <mxCell id="0"/>
                <mxCell id="1" parent="0"/>
                <mxCell id="7" value="http://ics2o.mths.ca" style="swimlane;whiteSpace=wrap;html=1;" parent="1" vertex="1">
                    <mxGeometry x="50" y="40" width="760" height="480" as="geometry"/>
                </mxCell>
                <mxCell id="16" value="" style="whiteSpace=wrap;html=1;labelBackgroundColor=none;fontSize=20;fontColor=#FFFFFF;" vertex="1" parent="7">
                    <mxGeometry y="100" width="472" height="250" as="geometry"/>
                </mxCell>
                <mxCell id="9" value="Gregory Leibniz Series ,with JS" style="whiteSpace=wrap;html=1;fillColor=#0050ef;fontColor=#ffffff;strokeColor=#001DBC;fontSize=27;" vertex="1" parent="7">
                    <mxGeometry y="20" width="760" height="50" as="geometry"/>
                </mxCell>
                <mxCell id="10" value="&lt;span style=&quot;font-family: Roboto, Helvetica, Arial, sans-serif; font-size: 11px; letter-spacing: 0.64px;&quot;&gt;&lt;font style=&quot;font-size: 11px;&quot; color=&quot;#ffffff&quot;&gt;Enter a number below to indicate the amount of iterations to calculate pi using the &lt;br&gt;Gregory-Leibniz series&lt;/font&gt;&lt;/span&gt;" style="text;html=1;align=left;verticalAlign=middle;resizable=0;points=[];autosize=1;strokeColor=none;fillColor=none;fontSize=10;" vertex="1" parent="7">
                    <mxGeometry x="10" y="110" width="470" height="40" as="geometry"/>
                </mxCell>
                <mxCell id="11" value="Enter amount of times" style="text;html=1;align=center;verticalAlign=middle;resizable=0;points=[];autosize=1;strokeColor=none;fillColor=none;fontSize=13;fontColor=#FFFFFF;" vertex="1" parent="7">
                    <mxGeometry y="200" width="150" height="30" as="geometry"/>
                </mxCell>
                <mxCell id="12" value="" style="endArrow=none;html=1;fontSize=13;fontColor=#FFFFFF;" edge="1" parent="7">
                    <mxGeometry width="50" height="50" relative="1" as="geometry">
                        <mxPoint x="150" y="220" as="sourcePoint"/>
                        <mxPoint x="320" y="220" as="targetPoint"/>
                    </mxGeometry>
                </mxCell>
                <mxCell id="13" value="Number" style="text;html=1;align=center;verticalAlign=middle;resizable=0;points=[];autosize=1;strokeColor=none;fillColor=none;fontSize=11;fontColor=#333333;" vertex="1" parent="7">
                    <mxGeometry x="165" y="200" width="60" height="30" as="geometry"/>
                </mxCell>
                <mxCell id="14" value="Calculate" style="whiteSpace=wrap;html=1;labelBackgroundColor=none;fontSize=20;fontColor=#FFFFFF;" vertex="1" parent="7">
                    <mxGeometry x="30" y="270" width="110" height="50" as="geometry"/>
                </mxCell>
                <mxCell id="15" value="" style="shape=image;verticalLabelPosition=bottom;labelBackgroundColor=default;verticalAlign=top;aspect=fixed;imageAspect=0;image=data:image/png,iVBORw0KGgoAAAANSUhEUgAAASAAAACvCAMAAABqzPMLAAAAilBMVEX///8AAADFxcXe3t5xcXH39/c9PT3s7Oz7+/v09PRNTU3y8vLt7e3k5OTp6enBwcGioqLR0dHLy8vg4OCqqqrX19exsbGHh4eOjo5qamq7u7uhoaF3d3eampqAgICUlJRhYWFFRUUwMDBTU1M2NjYgICBiYmJBQUEqKipra2s5OTkLCwsaGhoUFBRrATU2AAAUFklEQVR4nO1dh3ajOhAVzRa9iWqqcU2e///3HqIKELEdk7KO79mzm7DYiMvMaEaaGQB44QbIqVcicX56HL8V8JAUfJ74wk8P5LdCMAEvBD89il8N+wCKnx7Dr0a0kY/qTw/iF8N+X4OL+9h3yJvWhKH1wwP6bVB0ACzl5tMFmjXPHABl0yh/4v68tpr69JgbAeAkxRb/7BnfPaKfBRz/kkwJEgob/yfa4V/ElfwtA/sdkFEcm0CNjdhXAefHaO0y/EYFoZGWVstNTTcNS+E5VSfXBIG99ZMj/nLEfI2gMrYso4VbGYaMl4fq1mHfQ4VBqgDLvwoXqKdcY3casN6qjzYEFeHPjf4LYKMWtOlHZM3wxAKbKS1zuioJg4DBKmaaVsADIMVA3rKAzauTUWWDQPDgjPjLoLotaBOZliVsyQDHlHYlO1SHSoJk4BUWjwlCz0/QGJ2Kafi3YwSUY2yqWILi0tKIDmBYFeml6+RlulASJO4sYK2qjzYqJj2Xin0M/mih9xzFDNLAOvcczwJFYlgmgyzp5If/BabLJIKNRUcJDwziwJMaaVOjHxdQamq6qOsstlAoVrHTXEqI5buCK5q67lisLoKgPC5aOqvjf4/itw79W6Du2Yc+z3r9z+kTOopC9P6gWkTd553swcH8RqDN7kGC5LiN0NwZZf2XIfPa9jEVIyIS+NFZ/yYgD9bbZ5x5loLr29YJPeHUsxT0NE4u/GtT4yM4/z1qg54bVpYXLyP0wgsv/H4oT+gHLgh5c3zCQGJRFC+CZgDDap3wA4LWfzs9xI+KGMwTBK2Y+dO+uL0zsw8Jcqy/TVBa7VtARwrnFEn40wSJWYL/EVhTn9tXFv80QTZjXjvlbxPEMleXi/42QdHu6hz+twm6RNdCDNFhwr+U9jKEwFzd63Kjgo9n9dD24qcO4kLmwe12OXvuxLyUeXS9kfcXGchvBf/2UIyqqObeAdDWgPoEZsrUaxAus3bMHvlGNoiPDACb+BAH2b9viqwmnYrYKDOZaHyWcBvwqeouBL4EdBdEkfucpohl0OgIPEu34IyT1tK3OhMNwOfIrBpmmFXYMNz4LGV9CzA/kC/FjzGVMtJ9h+A519sK5pFPex5wT2EcSyEDzHipMf0qXHaPfJrjfbeQFLdAkec95aojZLzrJ40gx0knLFDAf0D5R/z35zAaTIa6ca9uPiiA8WLw/me2+zfUOD3L9r3p5sZc2c5zJrtScZaoJWDWtifImEqLm37diH4ZiombWIElCEI9QR5vx6kIHFd8vso6OriTUUYb4cQVGhDUqVPiOIx+CblVGv0VG6QzKpATKx0bopYgroxLIq+MTXDZqxgCV1qzohO64e1FjP820H8AODwIx4rWEqTpLJvELKs3hPDJ947vhwFBVHpBVgTCcZxpbe3u507F1rFdRlzu38kIdY/qpRQUk58QZPmXuNO6zkjrW3cfss+9OjZAWESb8h8umEzbpZFxOzPcT/MolOPNtw3v5wEtHYdPQrQJJtMYAec5o/R78FempBdeeOGFF1544YUXXnjhhRdeeHr8a0E+/OYBh/9aQouQfOvKlZr9lpS60TjkCQ1Kc4Q7fGl+AGTJ5Xih+PLccUi5nUGGiIIHxBnD9AouTP3+g3g7ygn9TX3E+MoMHBmtyEcTE8MSoPAFj0ZIKD1mPXwMNtyxeCVY1PnBGQlS9nhft6IS4hxvHoEmw2Cdf7R2/DDIejGH6X/RC8+Qlr9cMsj9g6aOdw7kQgFCGoUJLrCxqr0nZ0iQqik7bRPpUdUTExNka+DUcG2slh9nCcFLsZ6TBEXEDqGTmNpx8Yvaw60mjt9Wfa9TBBynEGJdMIzEN2JxTBDulwpRDjY+QJv4YBgli17bm299+pI98SLOsUIRBIl7omepUghuurjs+mN7kVQEmVvcTg0ULHQcw3VMUoJqPdctDegRONuyY1qe44ggNIVWW79k65fdagaWaCITBr0RRqcc4ea8dP9EIRtPAlFFkLaDIAiBhPWNxSpW2sa6nk31otCPxfDNk5RU1wpkNzaoPNL1t3Hev2Cq9yphF43MbxkSgoFYwyrNbllo27FbVxMEMxNYJTdYJCwsthrLVnvfMFpbjMnYnK6X0iXXZwjYjjm6brXPUzgt3wlT203SoezLlzuJ6l7B9ehGhQ0WlZogcOgvLZKPBVpgE8jsaDqd5Ckly6ezc9NMaYepnDPBYlmdALtg73fthCVIUyvY2OFpCMooLa0brMY57xS4D6U1U4GmJZkuUz07RWIYL63he9GeCT52h9SUrH6VdV0EnG/Tz1XysbFIztWn8pkPcJHKWCC9Fm/dUGB6L7J8YmCCvGbCZBhCpbVoKmtDSERuJ0x1nwcwn5O6UW9vOzr9F5X8cv/NnG+dgl3sXbUwzn5eAj8JSqZ0d8hlBlmwbqUF7vSeYZU1JBeQ6wInIVA5BnfBd+gG3h26N4LpOGb5Yf08N07XoV15jPVqmJ8jPjy9aJNqlpKgrkqTZwoyVsSnsiNCZSw2IfY/2MyS+i+DIDwAN9J39KpzKFGDYf5RT68YeEJs9nBCrkspyewPrSVm5Hoph8HM4Xjb6pkHJU3G0SQfseatgV/Y/SFhIACWT7Fo4cP5WdkwnfD4cEKT99/0CROclWZoSCAaibBWzz5mUHoquuT0HKi+hpRML5zOanLDwZoUgxs+HBUPXThAryS4AzA4TsapMYShM5jtwDRnYzvZTM9brZStBJeYi64JkQ35tzxTz8q510juO3oJ80Tho4rYPQc0ZCvoNgfbChv0U6G9O0xOc0iChIDJSEP3Nha4hqC9BcTqxSVyFJ53cT3bQpEscuFu8GMeRiR1D7yMTbYZUM+6lCXSTcaaMxv0Z5tjGwOwL0HKpcowhFbBNyxPdjnnYGA720pQS6rpgsQzxwZGLs8Oy9Cy1ivsgi4Ms7lg1HUaYy8KDl5dCxxD9zbhhWKD/hCtbF4fKq7OZMRvK0yQH9Uwe4JWhNRR2qWYfBQFUhTx1eXUhF8aaXNT0VtrBo8+WL/hO4E3d9ZwvRpJz5DHTE2lyQycLWfQeemNHoWDbiVmzcrvtqBTrK36HSrG5+0se3HLO9Ec27RyWbmtPAm26A/llNjFHkiVUgycf2noqQpqVqiY731LXJL5uePSXN5vMdJB0T79LF5HF5YtvChbx5+ezBjKYqpMEiTnQ32Jh3epos3GKLVOlVrWTd8NfUSbrp2HCeKu68qh29rQ4g2bxoLuscj/9OrEmqF5mmQElo30Qg2o0aDf3zyca12+vuUxfuQI6WxKL98ikA39oHown483Qmrnjj7UgAm5MgrxdIZoT4Nb5kWKgvNhe4IoVLZXKtXgTAXcZ5G+04S2n9c3g8ulWNxgMh0jjJfZRVNcj7CJ7HjlQxOad1XNY31cdlU6y2gKU7QGxW35EURZtYpryx0LgCUIQj3rilw1u4RX3xjrLLvmCnNqVXjM1ASxzNmv/IIoyLITw1DZXBY6QZDbsWFGnptEeKXFubJixjIzC26fg7Mv+da9cXsps15ylb3DIatxOByC4PAN6QwtQVCAEJmNR6J5EJ1MBqJt/SbBD7DwkmtYMqFmMB7NVByz+LLcrWgJckvPuziUzjqWorUKUh46wGl2OD6Av+wW52Zbl2SOAlYxazRvsN2z/N4PBS1Biqpqsa6pan1R8Wjd9NoTYbtgQZtiinkpOmwEwrG3iFatEeo1WvM339BOwKLZILOwmbVyy/ytMgvuvBiM/a7WJZnZ6L/k5o1SMrHgmoYw++oMJc07MkFn6bpZTL8kZcBwi5u5WdILcuICX9MOgDGJIvlax6zESVSuAsgtIH1vv8l+FlPhtEMGFatFjadTRVlQj6fvtnEu1Xg83kmbRSS4Kgm62vV1USh3Gz39oWY/s6CMA/KVsSsCD0ClAigs8PVZZ49B+A5HpIG2K82TViiS5dT7zuLGFYLfkrY4g0mDhK+ExUNgu8DolFpO/V8uQCD71kRg/zvW/5bE9UBtWYhfH5kuC+FfG/ALL7zwwgsvvPDCCy+88MILL7zwVZCvvv3oGpznbp+cfHa7S+z2oPzlq7R+D8Jrj39OvmDaJQUJwTcs5sGfeZmpcuz3ImVASd/gKDsFZiV0Rp8ebGWLD2wMOcwpW4dq6MLxkcfT9UnwfQoZ50fhpL2DehhsZUAR95JWzphVng27VLRs8QRNY7QJB2E+tQVaonp9Bg+LF+15jZ/dn9/cv7FH7oXbiAfZeBDJQIDkNKt2v7HErHOD7dTT2S68LU3WhAjIxbcuUQjiQZgDlqtFuio44BV9tvBPjO42BR6ZXOi5oBhvfZ0G2QBw7dTpAbkDzFwilskXfpMEVxAGJ05yLOcUgkoDmbhWcFAlPKqKRgiC+SmDK+5UPzhIipcAm4VDMxSOC9y0mqBoAxCy0l4/jUWraZWc2OKCDMfjPSjqzneIRMCboADsOZICnHDvfrRfhe7cW3TJ168JVvlnlKHpj3MimwQTlABWXRu9CDWFwAvBI1MDkSRCCASWIQ0k1FXIQmDFagwlEPIObCSIjZ2x3SYgnu4zQ9m1nNAImwLRrouT8fgagiZ6vs4XTF0SLqStONRPHQqE1mmJUWRJJh8KKVUTEFbOHLZBMC+kj7wylN8zENjc1VodoheGBBNkbxCGgQsw5ghqWkssg5hUbPtE0RnXhAUiDHnFnXmDENv7e1KsnCZRKjptszZfU8pXp66uAKRjEdPqvjBoInrxXY+Ggr6EpMp868DSso+F1hjejeCeqs+wqTIf1oRxSZ/EaQ3lApqIQbg0K5r0MgpPn976VTE1etCxMix+R7TEVVu1dqL8mSui4g6H3GivjZhBYquetT/B3cC/EVzXcrGnmk9Sucz3uewuc2oz5YE/gvCQlT5bYpjLG+wp33ncHAIQfyafTL3jvcww6a7tMwNBDrsv8ag5SZTQQqbUl1cYa6OAJ8qoNKpaliAeTzx1bdCm/TyMSBMEmXEDoepLg9jjb0uXUmNjYJvuyHGG585uCCcmo57D0Sr9hYnDjS9MEtQLjZAPsnZM71C1jSoF3Qw9kGkqcnmE68s6gsQTqb8K/V3L5ZfemPevREPv93J7VCQUfYK0c6FWRpX/QREMljaRXoh5nqjf9YfTP+fsqwHiLhORpQUqEOBGxjO40X6pPPBeXUqB533gh/UWBU0i6RCPxLku82CN+Z4guC+RFyddTLYVQfhtMCvV4fGHKhvEHdo2ScpA2692DLkCU8N+keMAp5Ejfr4hmzAq6pVPpHnImP1D6wTbhKgA78TYmZjYmiCn1G4OwGrUFUFy534NCZImDN8DO0iL9zWI/SBImzRvb76kyvVreGI7ElL4lBMTDGZAaHO3oB3/rvk0XGtrK9U0rbpfqyJordXAP9cEaURDg9G8q5EVO+ppEj1pNw2rIhnuQ+DugR2DlGcbgtLLLEFjKMzAaSqVbGB7VWl1A3btd6yaainOSxK+SJK6DyCLn5fsJzXWHUHicVZzHJIgdmIaBW93y7i2WJ7RSimpAbIAirht6bmZLwhiN3VLrLh5ZMr74OlA6aG8zS0hf3b3TdZEoFsJmtWcQU8sRCnsvx08D4SdpYmqvLNAQ7s/L0Ft54W2J5p8Gszhyf3vXCVxInZHeiPNTQg61TZovm5JIwlKH6qQS6KSYdU3MnQSuUYaomtlnT3EVUb8Fs9H9vItVQH/kdFKP7eP0vNRIRVZGUW5054h3dUIX1fMaH70FfSNk+XSF40ylZW8iG+f3+H2tqJiQZzr0hYqHWNTDhZ6M0UiYkgEjO+Ee6f2eoHowWEy71PIhK+73mez581BcY2+hlKo6NKI9tj57WW/wuGt+9kqyKUyvX6GTmJvcF20uSfkvO+5lRT/EVZ94PESZAc0Y8MF8zIp7nqqVaofDQX3A+fITWTK+n4H5vZNPCIW41aD5lFNN5mzJMMsG5baAq8fm33qB6LOxWI2bSUt+sj7S/qVE4tmgmB8JuZbeexpKw6uvJnFPf5wF82vB93q9FUjhWEigqh0eQ0JmHEb0PjEOitBkPk+N91QJAh+uJZDLHCkDK2TgEiupXPTEMnM5uXTvNyxs6E31xG3Qdw0TEwPe4YhmiVzlxDAPHT9/9r7T/ubIwlC28WqIc1L9wykGVUkCeoUUkAJi2IFmL44732ns332KKjKwkug3dtpf2EwLqfdKifco0P5fSKTOGKKH6XlumEWuy6qxYkkKH10RbEH4ZBhyy/GlD50PUF2R1AcmkzIhOqbl80HuPf1xcvrKQaO0J8Qo9L8W/vDoX4kjs5aZ8Sy+pSg6PYg+Sq6VT/7XQfwoKQT89bYIM113fgcunX1Jiq9LsUVnTKamm3xYb7f1R3hfOWuUFi6EiBJwEV3WrEnuo9yPUHqaclqv9YGo12pMDllfa4lSNdZFLF6M+sC/+q21wfeHg3t/K1mxO3p3bufWSZflcHi0QDH0GuNQW+kzc0lbRkymSVzL4wM/w2BVz5A9gjMiW9HVbFEyw2iFJgGeXfn4kljhMC5t7BmBPjGxoVxHKcm2GjA8Tqz10/zRhp3e6veY3HKCKIU4oUAFXdMs0qChtu2UEeM1zmTnZFWGT/zQlr/yh7JveGmUZtWrYBuqzkIfZwQZVKV+H3ZrgPcXgXsrmLdWQF2tOfmWKbViVCf3+aGmktrntbDvNtQcnWTNzMIExTjbnJnvWTHv7tj6OR92o+CzWRg1S5dbH3YnuiOSkOHv98ORJVquHm8bqlP3WlH/qsoFi/I1gmlXyq1JvzEygBuGFB6O+Zhw2GLE8eO7oO702jcBfedfxss3DbOE5HfSp+8Qfemi8nnK63F/mlgL2z44oO7Y4abGo/8u3g4vdB55izgP4v/ARzHOUmO544rAAAAAElFTkSuQmCC;" vertex="1" parent="7">
                    <mxGeometry x="480" y="110" width="279.77" height="170" as="geometry"/>
                </mxCell>
            </root>
        </mxGraphModel>
    </diagram>
</mxfile>